<svg xmlns="http://www.w3.org/2000/svg" width="59.995" height="60" viewBox="0 0 59.995 60">
  <path id="success" d="M-8789.954-276.2a30.041,30.041,0,0,1,30-30,29.734,29.734,0,0,1,11.669,2.364,30.05,30.05,0,0,1,9.538,6.433,30.038,30.038,0,0,1,6.433,9.538h0a29.715,29.715,0,0,1,2.358,11.669,30.033,30.033,0,0,1-30,30A30.033,30.033,0,0,1-8789.954-276.2Zm4.961,0a25.065,25.065,0,0,0,25.036,25.036,25.065,25.065,0,0,0,25.036-25.036,25.065,25.065,0,0,0-25.036-25.036A25.065,25.065,0,0,0-8784.993-276.2Zm19.74,7.785-5.074-5.11a2.483,2.483,0,0,1,.03-3.507,2.5,2.5,0,0,1,3.5.018l3.321,3.345,10.37-10.316a2.452,2.452,0,0,1,1.753-.73,2.481,2.481,0,0,1,1.754.73l.006.012a2.5,2.5,0,0,1-.018,3.5l-12.136,12.064a2.458,2.458,0,0,1-1.747.724A2.482,2.482,0,0,1-8765.253-268.414Z" transform="translate(8789.954 306.202)" fill="#e31e24"/>
</svg>
