<svg xmlns="http://www.w3.org/2000/svg" width="56" height="84" viewBox="0 0 56 84">
  <path id="icon-lk-person" d="M66.867,74.331V82.6a1.413,1.413,0,0,1-2.826,0V74.331c0-6.438-4.644-11.649-11.144-11.648a8.694,8.694,0,0,1-7.464-4.152,1.392,1.392,0,0,1,.472-1.924,1.42,1.42,0,0,1,1.942.467A5.883,5.883,0,0,0,52.9,59.883C60.958,59.883,66.867,66.345,66.867,74.331ZM42.823,60.3a1.4,1.4,0,0,1-1.08,1.666A13.629,13.629,0,0,1,31.23,59.928a8.617,8.617,0,0,1-6.393,2.755c-6.5,0-11.145,5.21-11.145,11.648V82.6a1.413,1.413,0,0,1-2.826,0V74.331c0-7.985,5.908-14.448,13.97-14.448a5.864,5.864,0,0,0,5.9-5.834V53.68A18.748,18.748,0,0,1,19.981,37.47a5.724,5.724,0,0,1-4.43-5.533V24.681c-.077-3.552.455-12.448,7-18.7C30.64-1.742,43.606-1.251,53.141,3.3a1.4,1.4,0,0,1,.3,2.331,19.065,19.065,0,0,1,11.671,8.318,1.535,1.535,0,0,1,.325,1.1,1.41,1.41,0,0,1-.405.888,9.1,9.1,0,0,0-2.671,6.456v9.549a1.413,1.413,0,0,1-2.826,0V22.389a11.847,11.847,0,0,1,2.745-7.609A16.353,16.353,0,0,0,50.562,7.966L48.079,7.7a1.4,1.4,0,0,1-.388-2.686l1.13-.461c-14.711-5.08-30.443.564-30.443,20.11v7.272a2.887,2.887,0,0,0,1.59,2.561V25.423a9.857,9.857,0,0,1,9.892-9.8H47.875a9.856,9.856,0,0,1,9.892,9.8V36.884A18.894,18.894,0,0,1,33.538,54.741,8.5,8.5,0,0,1,32.8,57.6a10.783,10.783,0,0,0,8.342,1.63A1.413,1.413,0,0,1,42.823,60.3Zm-3.956-7.6A16.017,16.017,0,0,0,54.941,36.778V25.423a7.04,7.04,0,0,0-7.065-7H29.859a7.04,7.04,0,0,0-7.065,7V36.778A16.017,16.017,0,0,0,38.867,52.7Z" transform="translate(-10.867)" fill="#d3d3d3"/>
</svg>
